<?xml version="1.0" encoding="utf-8"?>
<!-- Generator: Adobe Illustrator 27.8.1, SVG Export Plug-In . SVG Version: 6.00 Build 0)  -->
<svg version="1.1" id="Warstwa_2_00000123417287839476506020000009501288613801682076_"
	 xmlns="http://www.w3.org/2000/svg" xmlns:xlink="http://www.w3.org/1999/xlink" x="0px" y="0px" viewBox="0 0 125 127.2"
	 style="enable-background:new 0 0 125 127.2;" xml:space="preserve">
<style type="text/css">
	.st0{fill:#914470;}
	.st1{fill:#B4548B;}
</style>
<g id="Warstwa_1-2">
	<path class="st0" d="M6,72.7l28.1,3.8L33.3,83L5.2,79.2L6,72.7z M92.6,12.7l-6.4-0.9l-3.8,28.1l6.4,0.9L92.6,12.7z M118.6,54.4
		l-4.5,33l-37.5-5.1l-5.1,37.5l-33-4.5l-0.9,6.4l39.4,5.3l5.1-37.5l37.5,5.1l5.3-39.4C125,55.3,118.6,54.4,118.6,54.4z"/>
	<polygon class="st1" points="68.9,116.5 74,78.9 111.5,84 116.5,47.6 78.9,42.5 84.1,4.9 47.6,0 42.5,37.5 4.9,32.4 0,68.9 
		37.5,74 32.4,111.5 	"/>
</g>
</svg>
